<?xml version="1.0" encoding="UTF-8" standalone="no"?>
<svg
   xmlns:dc="http://purl.org/dc/elements/1.1/"
   xmlns:cc="http://creativecommons.org/ns#"
   xmlns:rdf="http://www.w3.org/1999/02/22-rdf-syntax-ns#"
   xmlns:svg="http://www.w3.org/2000/svg"
   xmlns="http://www.w3.org/2000/svg"
   viewBox="0 0 267.39999 383.95999"
   height="383.95999"
   width="267.39999"
   xml:space="preserve"
   id="svg2"
   version="1.1"><metadata
     id="metadata8"><rdf:RDF><cc:Work
         rdf:about=""><dc:format>image/svg+xml</dc:format><dc:type
           rdf:resource="http://purl.org/dc/dcmitype/StillImage" /></cc:Work></rdf:RDF></metadata><defs
     id="defs6" /><g
     transform="matrix(1.3333333,0,0,-1.3333333,0,383.96)"
     id="g10"><g
       transform="scale(0.1)"
       id="g12"><path
         id="path14"
         style="fill:#ffffff;fill-opacity:1;fill-rule:nonzero;stroke:none"
         d="m 1538.75,1685.08 c 88.31,239.98 157.23,438.09 206.68,594.34 49.45,156.25 74.17,252.17 74.17,287.77 0,38.24 -8.24,67.91 -24.72,89 -16.51,21.08 -39.26,31.65 -68.24,31.65 -36.92,0 -74.5,-30.66 -112.73,-91.96 -38.27,-61.32 -80.44,-159.91 -126.58,-295.69 L 1289.54,1728.6 Z m -263.06,-532.03 c -56.69,2.64 -110.45,8.57 -161.19,17.8 -50.76,9.2 -99.22,22.41 -145.367,39.55 21.066,-42.22 39.857,-84.38 56.367,-126.58 16.48,-42.22 29.97,-83.75 40.55,-124.601 31.64,39.562 64.94,75.461 99.88,107.791 34.91,32.31 71.5,60.99 109.76,86.04 z m -223.49,599.28 -213.602,617.08 c -55.383,156.91 -98.235,259.4 -128.559,307.55 -30.355,48.13 -63.289,72.19 -98.894,72.19 -27.684,0 -50.133,-10.57 -67.247,-31.64 -17.14,-21.1 -25.71,-49.45 -25.71,-85.05 0,-60.66 23.05,-166.14 69.226,-316.45 46.149,-150.31 115.367,-347.44 207.672,-591.37 7.91,14.51 19.09,24.72 33.621,30.66 14.504,5.93 34.281,8.9 59.336,8.9 7.906,0 23.734,-0.69 47.469,-1.98 23.73,-1.32 62.605,-4.64 116.688,-9.89 z M 858.375,797.039 c 22.414,0 42.824,10.191 61.313,30.66 18.457,20.43 27.691,42.52 27.691,66.25 0,25.031 -18.133,83.383 -54.395,175.041 -36.285,91.64 -81.421,181.63 -135.48,269.97 -39.555,65.93 -78.449,115.7 -116.688,149.33 -38.269,33.62 -74.5,50.44 -108.781,50.44 -27.691,0 -58.347,-17.51 -91.972,-52.42 -33.622,-34.94 -50.434,-67.57 -50.434,-97.9 0,-31.65 16.48,-79.12 49.445,-142.41 32.938,-63.29 77.133,-130.53 132.516,-201.73 58.019,-77.829 112.734,-138.45 164.16,-181.961 51.422,-43.508 92.27,-65.27 122.625,-65.27 z m -593.348,47.473 c 18.457,-22.453 44.172,-55.391 77.133,-98.903 87.028,-119.98 167.434,-179.98 241.301,-179.98 25.023,0 47.465,7.91 67.242,23.742 19.777,15.82 29.668,32.301 29.668,49.438 0,19.781 -13.187,52.722 -39.555,98.89 -26.406,46.153 -62.632,98.211 -108.781,156.25 -52.742,67.25 -96.613,116.361 -131.527,147.351 -34.942,30.96 -62.988,46.48 -84.055,46.48 -46.176,0 -88.703,-24.72 -127.57,-74.17 -38.899,-49.438 -58.348,-107.79 -58.348,-175.028 0,-54.102 13.516,-114.422 40.547,-180.98 27.004,-66.582 66.254,-133.5 117.68,-200.75 77.793,-104.172 174.351,-184.243 289.754,-240.282 115.367,-56.09 242.937,-84.05 382.707,-84.05 257.117,0 472.367,95.921 645.757,287.742 173.37,191.847 260.09,432.16 260.09,720.918 0,88.32 -6.62,158.53 -19.78,210.64 -13.19,52.08 -34.94,89.99 -65.27,113.72 -54.09,44.81 -159.21,85.05 -315.46,120.65 -156.25,35.6 -319.42,53.4 -489.517,53.4 -47.469,0 -81.094,-7.91 -100.867,-23.73 -19.781,-15.82 -29.668,-42.86 -29.668,-81.09 0,-89.69 50.105,-154.6 150.312,-194.82 100.19,-40.24 262.37,-60.32 486.55,-60.32 h 81.09 c 18.46,0 33.29,-6.93 44.5,-20.77 11.18,-13.84 18.79,-34.61 22.75,-62.3 -22.45,-21.1 -68.57,-45.19 -138.45,-72.19 -69.91,-27.03 -123.32,-53.73 -160.21,-80.1 C 1253.94,986.23 1190.32,917.352 1142.19,837.59 1094.04,757.781 1070,682.32 1070,611.121 c 0,-43.512 10.19,-95.922 30.66,-157.23 20.44,-61.321 30.65,-99.219 30.65,-113.731 v -13.84 l -3.95,-17.8 c -58.04,3.949 -103.84,37.878 -137.458,101.851 -33.625,63.949 -50.433,149.328 -50.433,256.129 v 17.801 c -10.578,-9.231 -20.774,-15.821 -30.656,-19.781 -9.891,-3.95 -20.77,-5.93 -32.637,-5.93 -11.871,0 -23.078,0.988 -33.625,2.969 -10.578,1.972 -22.442,4.941 -35.602,8.902 3.957,-14.531 6.926,-28.68 8.903,-42.531 1.98,-13.84 2.964,-24.719 2.964,-32.629 0,-48.789 -19.117,-90.68 -57.355,-125.59 -38.27,-34.941 -83.758,-52.41 -136.473,-52.41 -83.062,0 -167.453,40.539 -253.16,121.629 -85.734,81.09 -128.555,160.511 -128.555,238.332 0,14.5 1.649,27.359 4.946,38.566 3.265,11.184 8.898,20.774 16.808,28.684 z M 1681.15,1651.46 c 118.67,-22.45 202.4,-72.52 251.18,-150.31 48.76,-77.83 73.18,-200.45 73.18,-367.88 0,-332.27 -99.88,-604.231 -299.64,-815.848 C 1506.11,105.809 1250.64,0 939.469,0 816.84,0 697.844,22.0898 582.469,66.2617 467.066,110.43 367.871,172.07 284.809,251.18 189.871,338.18 118.664,430.148 71.1992,527.059 23.7305,623.98 0,723.172 0,824.73 c 0,113.391 24.3945,201.05 73.1758,263.05 48.7582,61.97 125.8942,104.14 231.4062,126.58 -19.773,46.15 -34.305,85.05 -43.512,116.69 -9.23,31.65 -13.843,56.04 -13.843,73.18 0,59.33 31.312,119.96 93.945,181.96 62.605,61.97 121.637,92.96 177.016,92.96 23.738,0 48.761,-4.29 75.156,-12.86 26.375,-8.6 56.676,-22.74 90.98,-42.52 -101.558,287.45 -175.367,509.29 -221.515,665.54 -46.176,156.25 -69.219,264.04 -69.219,323.37 0,81.75 21.066,146.66 63.289,194.82 42.191,48.13 99.547,72.19 172.066,72.19 123.918,0 280.852,-276.9 470.725,-830.69 32.94,-94.93 58.02,-168.11 75.16,-219.54 14.5,40.85 34.91,98.89 61.31,174.06 189.87,548.51 353.35,822.77 490.5,822.77 67.25,0 120.95,-22.75 161.19,-68.24 40.22,-45.49 60.33,-106.5 60.33,-182.95 0,-58.04 -22.09,-164.15 -66.26,-318.42 -44.2,-154.28 -111.09,-356.01 -200.75,-605.22" /></g></g></svg>